<?xml version="1.0" encoding="utf-8"?>
<!-- Generator: Adobe Illustrator 21.1.0, SVG Export Plug-In . SVG Version: 6.00 Build 0)  -->
<svg version="1.1" id="Layer_1" xmlns="http://www.w3.org/2000/svg" xmlns:xlink="http://www.w3.org/1999/xlink" x="0px" y="0px"
	 viewBox="0 0 190 46" style="enable-background:new 0 0 190 46;" xml:space="preserve">
<style type="text/css">
	.st0{fill:#FFFFFF;}
	.st1{opacity:0.7;}
</style>
<g>
	<g>
		<path class="st0" d="M0,0v46h46V0H0z M18.3,23.5h1.2v-2.4h1.2v-2.4h1.2v-2.4H23V14h1.2v-2.4h1.2V9.3h2.4v2.4h-1.2V14h-1.2v2.4
			h-1.2v2.4H23v2.4h-1.2v2.4h-1.2v2.4h-2.4V23.5z M13.9,14h-2.4v2.4H9.2v2.4h2.4v2.4h2.4v2.4h-2.4v-2.4H9.2v-2.4H6.8v-2.4h2.4V14
			h2.4v-2.4h2.4V14z M28.9,36.1h-2.4v2.4h-7.1v-2.4h-2.4v-2.4h2.4v2.4h7.1v-2.4h2.4V36.1z M39.2,18.8h-2.4v2.4h-2.4v2.4h-2.4v-2.4
			h2.4v-2.4h2.4v-2.4h-2.4V14h-2.4v-2.4h2.4V14h2.4v2.4h2.4V18.8z"/>
	</g>
</g>
<g class="st1">
	<path class="st0" d="M55.1,46V36h7.5v10h-1.9v-4H57v4H55.1z M60.7,40v-2H57v2H60.7z"/>
	<path class="st0" d="M64.1,46V36H66v8h1.9v-8h1.9v8h1.9v-8h1.9v10H64.1z"/>
	<path class="st0" d="M74.9,46V36h7.5v10h-1.9v-4h-3.7v4H74.9z M80.6,40v-2h-3.7v2H80.6z"/>
	<path class="st0" d="M83.9,46V36h7.5v4h-1.9v-2h-3.7v2h3.7v2h-3.7v4H83.9z M89.6,46v-4h1.9v4H89.6z"/>
	<path class="st0" d="M92.9,46V36h5.6v2h-3.7v6h3.7v2H92.9z M98.6,44v-6h1.9v6H98.6z"/>
	<path class="st0" d="M101.9,46v-2h5.6v-2h-5.6v-6h7.5v2h-5.6v2h5.6v6H101.9z"/>
	<path class="st0" d="M114.3,46v-6h5.6v-2h-5.6v-2h7.5v6h-5.6v2h5.6v2H114.3z"/>
	<path class="st0" d="M123.3,46V36h7.5v10H123.3z M128.9,44v-6h-3.7v6H128.9z"/>
	<path class="st0" d="M134.2,46v-8h-1.9v-2h3.7v10H134.2z"/>
	<path class="st0" d="M143.1,40v-2h-5.6v-2h7.5v4H143.1z M139.4,46v-4h1.9v4H139.4z M141.3,42v-2h1.9v2H141.3z"/>
</g>
<path class="st0" d="M55.1,13V0h8.1v2.6h-5.4v7.8h5.4V13H55.1z M63.2,10.4V2.6h2.7v7.8H63.2z"/>
<path class="st0" d="M68.3,13V0h10.8v2.6H71v2.6h8.1v2.6H71v2.6h8.1V13H68.3z"/>
<path class="st0" d="M81.6,7.8V0h2.7v7.8H81.6z M84.3,10.4V7.8H87v2.6H84.3z M87,13v-2.6h2.7V13H87z M89.7,10.4V7.8h2.7v2.6H89.7z
	 M92.3,7.8V0H95v7.8H92.3z"/>
<path class="st0" d="M97.5,13V0h10.8v2.6h-8.1v2.6h8.1v2.6h-8.1v2.6h8.1V13H97.5z"/>
<path class="st0" d="M110.8,13V0h2.7v10.4h5.4V13H110.8z"/>
<path class="st0" d="M121.3,13V0h10.8v13H121.3z M129.4,10.4V2.6H124v7.8H129.4z"/>
<path class="st0" d="M134.6,13V0h10.8v7.8h-8.1V13H134.6z M142.6,5.2V2.6h-5.4v2.6H142.6z"/>
<path class="st0" d="M147.8,13V0h10.8v2.6h-8.1v2.6h8.1v2.6h-8.1v2.6h8.1V13H147.8z"/>
<path class="st0" d="M161,13V0h10.8v5.2h-2.7V2.6h-5.4v2.6h5.4v2.6h-5.4V13H161z M169.1,13V7.8h2.7V13H169.1z"/>
<path class="st0" d="M55.1,30v-2.6h8.1v-2.6h-8.1V17h10.8v2.6h-8.1v2.6h8.1V30H55.1z"/>
<path class="st0" d="M68.3,30V17h10.8v13h-2.7v-5.2H71V30H68.3z M76.4,22.2v-2.6H71v2.6H76.4z"/>
<path class="st0" d="M84.3,30V19.6h-2.7V17h8.1v2.6H87V30H84.3z"/>
<path class="st0" d="M92.1,30V17h2.7v13H92.1z"/>
<path class="st0" d="M97.3,30v-2.6h8.1v-2.6h-8.1V17h10.8v2.6H100v2.6h8.1V30H97.3z"/>
<path class="st0" d="M110.5,30V17h10.8v2.6h-8.1v2.6h8.1v2.6h-8.1V30H110.5z"/>
<path class="st0" d="M123.8,30V17h10.8v13h-2.7v-5.2h-5.4V30H123.8z M131.9,22.2v-2.6h-5.4v2.6H131.9z"/>
<path class="st0" d="M137,30V17h10.8v2.6h-8.1v7.8h8.1V30H137z"/>
<path class="st0" d="M153,30V19.6h-2.7V17h8.1v2.6h-2.7V30H153z"/>
<path class="st0" d="M160.8,30V17h2.7v13H160.8z"/>
<path class="st0" d="M166,30V17h10.8v13H166z M174.1,27.4v-7.8h-5.4v7.8H174.1z"/>
<path class="st0" d="M179.2,30V17H190v13h-2.7V19.6h-5.4V30H179.2z"/>
</svg>
