<svg xmlns="http://www.w3.org/2000/svg" xmlns:xlink="http://www.w3.org/1999/xlink" preserveAspectRatio="xMidYMid" width="24.59" height="16" viewBox="0 0 24.59 16">
  <defs>
    <style>
      .cls-1 {
        fill: #0431ff;
        fill-rule: evenodd;
      }
    </style>
  </defs>
  <path d="M21.865,8.622 L21.865,11.406 L19.890,11.406 L19.890,8.622 L17.175,8.622 L17.175,6.596 L19.890,6.596 L19.890,3.812 L21.865,3.812 L21.865,6.596 L24.581,6.596 L24.581,8.622 L21.865,8.622 ZM7.793,16.013 C3.485,16.013 -0.008,12.432 -0.008,8.014 C-0.008,3.596 3.485,0.015 7.793,0.015 C9.822,0.015 11.669,0.810 13.056,2.111 L10.757,4.420 C9.957,3.725 8.923,3.306 7.793,3.306 C5.257,3.306 3.201,5.414 3.201,8.014 C3.201,10.615 5.257,12.723 7.793,12.723 C9.755,12.723 11.429,11.460 12.086,9.685 L7.694,9.685 L7.694,6.344 L12.086,6.344 L15.397,6.344 L15.424,6.344 C15.535,6.882 15.595,7.441 15.595,8.014 C15.595,12.432 12.102,16.013 7.793,16.013 Z" class="cls-1"/>
</svg>
