<?xml version="1.0" encoding="utf-8"?>
<!-- Generator: Adobe Illustrator 21.1.0, SVG Export Plug-In . SVG Version: 6.00 Build 0)  -->
<svg version="1.1" id="Layer_1" xmlns="http://www.w3.org/2000/svg" xmlns:xlink="http://www.w3.org/1999/xlink" x="0px" y="0px"
	 viewBox="0 0 25 17" style="enable-background:new 0 0 25 17;" xml:space="preserve">
<style type="text/css">
	.st0{fill-rule:evenodd;clip-rule:evenodd;fill:#0432FF;}
</style>
<g>
	<path class="st0" d="M7.9,16.6C3.6,16.6,0,13,0,8.5C0,4,3.6,0.4,7.9,0.4c2.1,0,3.9,0.8,5.4,2.1l-2.3,2.3c-0.8-0.7-1.9-1.1-3-1.1
		c-2.6,0-4.7,2.1-4.7,4.8c0,2.6,2.1,4.8,4.7,4.8c2,0,3.7-1.3,4.4-3.1H7.8V6.8h4.5h3.4h0c0.1,0.5,0.2,1.1,0.2,1.7
		C15.9,13,12.3,16.6,7.9,16.6z"/>
	<path class="st0" d="M25,9.1h-2.8V12h-2V9.1h-2.8V7.1h2.8V4.2h2v2.8H25V9.1z"/>
</g>
</svg>
