<svg xmlns="http://www.w3.org/2000/svg" xmlns:xlink="http://www.w3.org/1999/xlink" preserveAspectRatio="xMidYMid" width="19" height="18.25" viewBox="0 0 19 18.25">
  <defs>
    <style>
      .cls-1 {
        fill: #0431ff;
        fill-rule: evenodd;
      }
    </style>
  </defs>
  <path d="M4.180,18.243 L0.476,18.243 L0.476,5.854 L4.180,5.854 L4.180,18.243 ZM2.233,4.304 L2.206,4.304 C0.866,4.304 -0.003,3.357 -0.003,2.158 C-0.003,0.934 0.892,0.006 2.259,0.006 C3.625,0.006 4.466,0.932 4.493,2.154 C4.493,3.354 3.625,4.304 2.233,4.304 ZM18.999,18.243 L14.799,18.243 L14.799,11.831 C14.799,10.153 14.143,9.008 12.697,9.008 C11.592,9.008 10.978,9.781 10.692,10.526 C10.585,10.793 10.601,11.166 10.601,11.539 L10.601,18.243 L6.441,18.243 C6.441,18.243 6.495,6.886 6.441,5.854 L10.601,5.854 L10.601,7.798 C10.847,6.948 12.176,5.735 14.299,5.735 C16.931,5.735 18.999,7.517 18.999,11.353 L18.999,18.243 Z" class="cls-1"/>
</svg>
