<?xml version="1.0" encoding="utf-8"?>
<!-- Generator: Adobe Illustrator 21.1.0, SVG Export Plug-In . SVG Version: 6.00 Build 0)  -->
<svg version="1.1" id="Layer_1" xmlns="http://www.w3.org/2000/svg" xmlns:xlink="http://www.w3.org/1999/xlink" x="0px" y="0px"
	 viewBox="0 0 20 19" style="enable-background:new 0 0 20 19;" xml:space="preserve">
<style type="text/css">
	.st0{fill:#0432FF;}
</style>
<g>
	<path class="st0" d="M4.5,19H0.6V6.1h3.9V19z M2.4,4.5L2.4,4.5c-1.4,0-2.3-1-2.3-2.2C0.1,1,1,0,2.5,0c1.4,0,2.3,1,2.3,2.2
		C4.8,3.5,3.9,4.5,2.4,4.5z M19.9,19h-4.4v-6.7c0-1.7-0.7-2.9-2.2-2.9c-1.2,0-1.8,0.8-2.1,1.6c-0.1,0.3-0.1,0.7-0.1,1.1v7H6.8
		c0,0,0.1-11.8,0-12.9h4.3v2C11.4,7.2,12.8,6,15,6c2.7,0,4.9,1.9,4.9,5.9V19z"/>
</g>
</svg>
