<?xml version="1.0" encoding="utf-8"?>
<!-- Generator: Adobe Illustrator 21.1.0, SVG Export Plug-In . SVG Version: 6.00 Build 0)  -->
<svg version="1.1" id="Layer_1" xmlns="http://www.w3.org/2000/svg" xmlns:xlink="http://www.w3.org/1999/xlink" x="0px" y="0px"
	 viewBox="0 0 19 16" style="enable-background:new 0 0 19 16;" xml:space="preserve">
<style type="text/css">
	.st0{fill:#0432FF;}
</style>
<g>
	<path class="st0" d="M1.8,1.1l7.4,6.3l0,0c0.2,0.2,0.4,0.2,0.6,0l0,0l7.4-6.3c0,0,0,0,0.1,0c-0.6-0.3-1.2-0.6-1.9-0.6H3.6
		C2.9,0.4,2.3,0.6,1.8,1.1C1.7,1,1.8,1,1.8,1.1z"/>
	<path class="st0" d="M18.5,2.3c0,0.1-0.1,0.1-0.2,0.2L11,8.8c-0.4,0.4-1,0.6-1.5,0.6C9,9.4,8.4,9.2,8,8.8L0.6,2.5
		c-0.1,0-0.1-0.1-0.2-0.2C0.2,2.9,0,3.5,0,4.2v7.7c0,2,1.6,3.7,3.6,3.7h11.7c2,0,3.6-1.7,3.6-3.7V4.2C19,3.5,18.8,2.9,18.5,2.3z"/>
</g>
</svg>
