<svg xmlns="http://www.w3.org/2000/svg" xmlns:xlink="http://www.w3.org/1999/xlink" preserveAspectRatio="xMidYMid" width="19.53" height="15.97" viewBox="0 0 19.53 15.97">
  <defs>
    <style>
      .cls-1 {
        fill: #0431ff;
        fill-rule: evenodd;
      }
    </style>
  </defs>
  <path d="M19.528,1.884 C18.811,2.205 18.038,2.422 17.228,2.519 C18.056,2.020 18.691,1.230 18.989,0.288 C18.215,0.750 17.358,1.086 16.445,1.266 C15.715,0.482 14.673,-0.007 13.521,-0.007 C11.309,-0.007 9.516,1.799 9.516,4.026 C9.516,4.343 9.550,4.650 9.619,4.944 C6.289,4.776 3.339,3.172 1.361,0.730 C1.017,1.328 0.819,2.020 0.819,2.759 C0.819,4.157 1.527,5.392 2.602,6.116 C1.945,6.096 1.327,5.913 0.786,5.613 L0.786,5.662 C0.786,7.617 2.167,9.247 4.001,9.617 C3.664,9.712 3.311,9.759 2.945,9.759 C2.687,9.759 2.435,9.735 2.191,9.688 C2.701,11.290 4.180,12.456 5.933,12.488 C4.562,13.570 2.834,14.215 0.958,14.215 C0.634,14.215 0.315,14.197 0.002,14.159 C1.775,15.302 3.881,15.971 6.143,15.971 C13.513,15.971 17.541,9.825 17.541,4.494 C17.541,4.319 17.538,4.144 17.530,3.972 C18.313,3.403 18.993,2.693 19.528,1.884 " class="cls-1"/>
</svg>
